<?xml version="1.0" standalone="no"?>
<!DOCTYPE svg PUBLIC "-//W3C//DTD SVG 20010904//EN"
 "http://www.w3.org/TR/2001/REC-SVG-20010904/DTD/svg10.dtd">
<svg xmlns="http://www.w3.org/2000/svg" version="1.0" width="2000.000000pt" height="641.000000pt" viewBox="0 0 2000.000000 641.000000" preserveAspectRatio="xMidYMid meet" style="&#10;    /* fill: red; */&#10;">

<g transform="translate(0.000000,641.000000) scale(0.100000,-0.100000)" fill="#000000" stroke="none" style="&#10;    fill: #545a5e;&#10;">
<path d="M3000 6399 c-916 -63 -1761 -519 -2323 -1254 -613 -802 -810 -1848 -531 -2825 336 -1176 1330 -2066 2534 -2270 203 -34 320 -43 545 -43 465 -1 875 85 1293 270 977 430 1684 1338 1861 2388 32 192 43 326 43 545 0 522 -111 985 -347 1449 -583 1144 -1791 1828 -3075 1740z m559 -244 c1063 -117 1989 -813 2406 -1808 92 -221 159 -463 200 -727 23 -143 31 -522 16 -686 -97 -1024 -712 -1926 -1627 -2382 -433 -216 -842 -312 -1329 -312 -394 0 -737 63 -1085 201 -974 383 -1670 1241 -1845 2273 -135 795 64 1615 547 2263 531 712 1351 1152 2223 1191 191 9 326 5 494 -13z"/>
<path d="M1666 4509 c-3 -8 -71 -248 -151 -533 -100 -356 -144 -528 -140 -546 3 -15 17 -38 31 -51 l26 -24 299 -3 299 -3 0 -694 0 -695 29 -32 29 -33 1130 0 c1217 0 1166 -2 1191 52 8 17 11 229 11 713 l0 689 301 3 301 3 24 28 c16 19 24 40 24 65 0 31 -281 1046 -293 1058 -2 2 -702 7 -1555 11 -1333 5 -1552 4 -1556 -8z m344 -206 c0 -9 -25 -182 -55 -385 -30 -202 -55 -370 -55 -373 0 -3 -67 -5 -150 -5 -126 0 -150 2 -150 15 0 8 48 184 106 390 l106 375 99 0 c86 0 99 -2 99 -17z m560 5 c0 -26 -50 -685 -56 -725 l-5 -43 -205 0 -204 0 0 23 c0 19 89 628 105 725 l6 32 179 0 c137 0 180 -3 180 -12z m558 -375 l-3 -388 -207 -3 c-193 -2 -208 -1 -208 15 0 33 51 698 56 731 l5 32 180 0 179 0 -2 -387z m552 382 c0 -15 50 -657 55 -712 l7 -63 -211 0 -211 0 0 390 0 390 180 0 c99 0 180 -2 180 -5z m606 -350 c29 -192 55 -365 58 -382 l5 -33 -210 0 c-115 0 -209 2 -209 5 0 16 -50 658 -55 708 l-6 57 183 -2 182 -3 52 -350z m455 -25 c59 -206 108 -381 109 -387 0 -10 -36 -13 -150 -13 -147 0 -150 0 -155 23 -5 23 -115 742 -115 752 0 3 46 4 101 3 l101 -3 109 -375z m-511 -1220 l0 -630 -305 0 -305 0 0 425 0 425 -395 0 -395 0 0 -425 0 -425 -305 0 -305 0 0 630 0 630 1005 0 1005 0 0 -630z m-800 -305 l0 -325 -205 0 -205 0 0 325 0 325 205 0 205 0 0 -325z"/>
<path d="M16495 4486 c-93 -16 -171 -30 -172 -30 -1 -1 -99 -499 -218 -1106 -119 -608 -218 -1111 -220 -1117 -3 -10 35 -13 173 -13 l177 0 54 283 c97 510 190 756 349 928 73 79 133 109 222 109 109 0 149 -36 157 -143 5 -54 2 -73 -17 -112 -44 -91 -214 -203 -387 -255 -56 -17 -73 -26 -73 -40 0 -32 91 -302 142 -420 107 -251 242 -454 410 -617 l63 -61 130 74 c72 40 134 75 139 77 5 2 -28 48 -73 103 -172 207 -315 451 -389 665 l-31 86 59 26 c145 62 293 194 350 311 66 135 63 299 -8 405 -66 98 -199 155 -362 155 -200 0 -351 -80 -481 -255 -29 -38 -53 -69 -54 -69 -3 0 14 63 76 268 45 150 165 735 157 766 -2 9 -52 3 -173 -18z"/>
<path d="M8506 4364 c-342 -62 -546 -305 -521 -619 17 -207 87 -303 385 -525 270 -201 308 -241 336 -351 31 -119 -2 -245 -82 -319 -81 -74 -196 -107 -342 -97 -118 8 -222 47 -392 147 -29 17 -56 28 -61 23 -11 -11 -149 -256 -149 -264 0 -12 183 -96 266 -122 263 -83 549 -79 762 11 181 76 320 217 380 386 22 60 26 89 26 191 1 145 -21 229 -86 325 -64 96 -127 155 -323 299 -275 204 -304 238 -313 366 -4 58 0 80 18 123 42 97 141 161 261 170 119 8 191 -36 244 -150 16 -34 31 -65 32 -67 2 -3 246 104 262 116 8 5 -42 130 -71 175 -59 94 -155 158 -277 184 -83 17 -252 17 -355 -2z" style="&#10;    fill: red;&#10;"/>
<path d="M10681 3305 c-140 -569 -252 -1037 -250 -1039 6 -6 351 -57 356 -53 2 2 46 199 99 438 63 287 108 523 134 698 21 144 41 265 43 268 6 5 4 13 57 -272 33 -178 138 -670 226 -1057 l16 -68 128 0 128 0 289 483 c160 265 320 536 356 602 36 66 91 167 122 225 42 77 55 96 51 70 -4 -19 -26 -138 -51 -265 -33 -171 -175 -1073 -175 -1110 0 -3 83 -5 185 -5 102 0 185 4 185 9 0 8 226 2033 233 2084 l4 27 -147 0 -146 0 -416 -707 c-228 -390 -446 -766 -484 -838 l-68 -130 -23 140 c-20 124 -287 1474 -299 1518 -5 15 -21 17 -152 17 l-147 0 -254 -1035z"/>
<path d="M19554 4201 c-67 -16 -126 -31 -131 -34 -6 -4 -41 -94 -78 -202 l-68 -195 -158 0 -159 0 0 -125 0 -125 135 0 c74 0 135 -1 135 -3 0 -1 -45 -227 -100 -502 -111 -552 -115 -596 -75 -682 46 -99 143 -138 340 -136 119 2 205 15 320 50 l60 19 3 118 c2 110 1 118 -15 111 -57 -22 -205 -46 -265 -43 -80 4 -108 24 -108 76 0 19 41 248 90 508 50 260 90 476 90 479 0 3 82 5 183 5 l183 0 20 125 20 125 -178 0 -178 0 5 23 c10 41 85 421 85 429 0 12 -23 9 -156 -21z"/>
<path d="M18255 3800 c-258 -38 -487 -211 -613 -464 -146 -293 -181 -702 -77 -906 114 -223 394 -299 763 -205 95 23 254 79 306 107 l25 13 -34 103 c-18 57 -36 106 -38 109 -3 3 -59 -14 -124 -37 -230 -81 -382 -101 -468 -61 -57 26 -101 79 -114 141 -15 72 -14 210 2 214 6 2 62 9 124 15 190 19 384 80 533 167 100 58 212 175 256 268 32 67 38 90 42 170 6 119 -12 185 -69 250 -52 59 -122 95 -218 112 -81 14 -214 16 -296 4z m174 -257 c59 -44 77 -132 41 -211 -62 -137 -224 -240 -435 -277 -134 -23 -127 -26 -105 48 73 252 186 415 319 458 44 14 150 3 180 -18z"/>
<path d="M13810 3788 c-406 -50 -696 -400 -751 -905 -38 -349 65 -599 276 -670 61 -20 198 -22 275 -4 177 43 323 191 429 439 24 56 46 101 48 99 1 -2 -1 -37 -7 -78 -16 -125 -12 -249 10 -320 17 -57 72 -159 85 -159 9 0 260 102 267 108 4 4 -13 48 -38 97 -89 181 -85 294 34 910 l78 400 -106 11 c-62 6 -136 21 -180 37 -44 15 -118 30 -179 36 -116 12 -135 12 -241 -1z m283 -249 c20 -5 37 -14 37 -19 0 -24 -64 -305 -86 -380 -101 -340 -252 -603 -384 -670 -74 -38 -165 -16 -202 47 -62 104 -35 455 51 679 73 189 207 323 352 354 50 10 176 5 232 -11z"/>
<path d="M14985 3751 c-66 -26 -128 -50 -137 -54 -16 -5 -14 -12 12 -69 39 -88 54 -203 47 -358 -6 -102 -24 -213 -100 -588 l-93 -462 175 0 176 0 74 383 c41 210 87 423 103 472 60 184 160 355 228 390 61 31 146 14 212 -45 l45 -39 92 147 91 146 -37 38 c-60 61 -121 82 -238 82 -80 0 -109 -4 -147 -22 -125 -56 -220 -201 -288 -439 -13 -46 -25 -81 -27 -80 -2 2 4 67 13 145 13 111 14 158 6 213 -10 69 -57 181 -77 185 -5 2 -64 -19 -130 -45z"/>
<path d="M9395 3338 c-7 -21 -45 -220 -45 -234 0 -12 74 -14 430 -14 237 0 430 2 430 4 0 2 11 58 25 126 14 68 25 124 25 126 0 2 -194 4 -430 4 -336 0 -432 -3 -435 -12z"/>
</g>
</svg>