<svg xmlns="http://www.w3.org/2000/svg" xml:space="preserve" width="1500" height="166" data-id="lg_hDSx2n9DAJkHLobCLX" data-version="1"><g data-padding="20"><g transform="translate(10 2.923)scale(.96479)"><rect width="645.83" height="195.49" x="97.118" y="-450.616" fill="#000d2a" stroke="#a0ff70" stroke-width="13.5" paint-order="stroke" rx="29" ry="29" transform="matrix(.85 0 0 .85 400.21 382.94)"/><path fill="#a0ff70" d="M542.594 100.496q-15.57 0-20.66-3.85v-15.88l1.02.31 2.23.7q3.16.97 6.64 1.82 3.49.85 5.6.85 3.47 0 3.47-2.12 0-1.63-2.98-3.47-1.35-.83-3.07-1.73t-3.49-2.01q-4.33-2.67-6.95-6.24-2.61-3.57-2.61-9.01 0-11.89 12.55-15.99 5.09-1.66 11.77-1.66 6.67 0 13.95 1.53 1.49.31 1.98.45v15.91q-9.43-2.01-13.56-2.01-1.59 0-2.39.55-.8.56-.8 1.25t.69 1.44q.7.75 2.4 1.49 1.7.75 3.97 1.8 2.27 1.06 4.24 2.27 8.88 5.45 8.88 14.88 0 8.94-6.03 13.83-6.11 4.85-16.85 4.89m30.27-17.96v-14.98h26.49v14.98Zm34.95 16.62v-55.37h7.94l26.76 25.13 27.49-25.13h7.66v55.37h-22.77v-17.96l-14.15 15.53-13.76-15.12v17.55Zm99.73-.01h-24.48l27.53-52.56q1.42-2.81 5.23-3.75 1.11-.27 2.74-.27t3.56.92q1.92.91 3.03 2.89l29.54 52.77h-28.12l-2.18-5.48h-14.98Zm9.46-31.45-5.89 14.98h11.2Zm78.04-6.41q0-4.89-3.64-4.89-1.56 0-4.33 1.14l-4.61 1.91v13.56q12.58-4.68 12.58-11.72m20.59.59q0 11.09-10.95 17.61l15.04 19.66h-27.38l-9.75-16.06v16.06h-22.63v-55.37q21.97-1.56 28.8-1.56t10.4.83q9.85 2.26 14.08 9.64 2.36 4.23 2.39 9.19m10.78-18.09h21.95v17.02l13.35-17.02h22.5l-17.89 23.33 20.66 32.04h-25.27l-11.58-19.59-1.29 2.25v17.34h-22.43Zm67.81 55.37v-55.37h39.91v15.95h-18.34v4.54h18.27v13.59h-18.27v5.23h19.55v16.06Zm47.05-37.41v-17.96h52.42v17.96h-15.43v37.41h-21.56v-37.41Z"/><rect width="479.46" height="80.23" x="117.294" y="-340.064" fill="none" rx="0" ry="0" transform="translate(400.5 383.18)"/><path fill="#fff" d="M984.094 27.996v-4.3h12.56v4.3h-3.7v8.95h-5.16v-8.95Zm14.03 8.95v-13.25h1.9l6.41 6.02 6.58-6.02h1.84v13.25h-5.45v-4.3l-3.39 3.72-3.3-3.62v4.2Z"/><rect width="102" height="19.21" x="306.024" y="-309.544" fill="none" rx="0" ry="0" transform="translate(643.23 333.46)"/></g><path fill="transparent" stroke="transparent" d="M466 0h568v166H466z"/></g></svg>